<mxfile host="app.diagrams.net" modified="2021-10-03T16:46:52.004Z" agent="5.0 (Macintosh; Intel Mac OS X 10_15_7) AppleWebKit/605.1.15 (KHTML, like Gecko) Version/15.0 Safari/605.1.15" etag="EItuAhk1xHIJUZ4I_GMz" version="15.4.1" type="github">
  <diagram id="H3dlCrs55PR2kd1iPhxd" name="Page-1">
    <mxGraphModel dx="1038" dy="452" grid="1" gridSize="10" guides="1" tooltips="1" connect="1" arrows="1" fold="1" page="1" pageScale="1" pageWidth="827" pageHeight="1169" math="0" shadow="0">
      <root>
        <mxCell id="0" />
        <mxCell id="1" parent="0" />
        <mxCell id="W6iLbMOwOnTDB81CC6ZB-10" style="edgeStyle=orthogonalEdgeStyle;rounded=0;orthogonalLoop=1;jettySize=auto;html=1;" edge="1" parent="1" source="W6iLbMOwOnTDB81CC6ZB-1" target="W6iLbMOwOnTDB81CC6ZB-6">
          <mxGeometry relative="1" as="geometry" />
        </mxCell>
        <mxCell id="W6iLbMOwOnTDB81CC6ZB-1" value="" style="ellipse;whiteSpace=wrap;html=1;aspect=fixed;" vertex="1" parent="1">
          <mxGeometry x="320" y="40" width="50" height="50" as="geometry" />
        </mxCell>
        <mxCell id="W6iLbMOwOnTDB81CC6ZB-11" style="edgeStyle=orthogonalEdgeStyle;rounded=0;orthogonalLoop=1;jettySize=auto;html=1;" edge="1" parent="1" source="W6iLbMOwOnTDB81CC6ZB-6" target="W6iLbMOwOnTDB81CC6ZB-12">
          <mxGeometry relative="1" as="geometry">
            <mxPoint x="345" y="230" as="targetPoint" />
          </mxGeometry>
        </mxCell>
        <mxCell id="W6iLbMOwOnTDB81CC6ZB-6" value="targetDeg 계산&amp;nbsp;" style="rounded=1;whiteSpace=wrap;html=1;" vertex="1" parent="1">
          <mxGeometry x="285" y="130" width="120" height="60" as="geometry" />
        </mxCell>
        <mxCell id="W6iLbMOwOnTDB81CC6ZB-16" style="edgeStyle=orthogonalEdgeStyle;rounded=0;orthogonalLoop=1;jettySize=auto;html=1;" edge="1" parent="1" source="W6iLbMOwOnTDB81CC6ZB-12" target="W6iLbMOwOnTDB81CC6ZB-15">
          <mxGeometry relative="1" as="geometry">
            <Array as="points">
              <mxPoint x="500" y="270" />
            </Array>
          </mxGeometry>
        </mxCell>
        <mxCell id="W6iLbMOwOnTDB81CC6ZB-17" value="abs(targetDeg)&amp;gt;55" style="edgeLabel;html=1;align=center;verticalAlign=middle;resizable=0;points=[];" vertex="1" connectable="0" parent="W6iLbMOwOnTDB81CC6ZB-16">
          <mxGeometry x="0.2276" y="2" relative="1" as="geometry">
            <mxPoint x="-34" as="offset" />
          </mxGeometry>
        </mxCell>
        <mxCell id="W6iLbMOwOnTDB81CC6ZB-19" style="edgeStyle=orthogonalEdgeStyle;rounded=0;orthogonalLoop=1;jettySize=auto;html=1;" edge="1" parent="1" source="W6iLbMOwOnTDB81CC6ZB-12" target="W6iLbMOwOnTDB81CC6ZB-22">
          <mxGeometry relative="1" as="geometry">
            <mxPoint x="345" y="360" as="targetPoint" />
          </mxGeometry>
        </mxCell>
        <mxCell id="W6iLbMOwOnTDB81CC6ZB-20" value="abs(targetDeg)&amp;lt;=55" style="edgeLabel;html=1;align=center;verticalAlign=middle;resizable=0;points=[];" vertex="1" connectable="0" parent="W6iLbMOwOnTDB81CC6ZB-19">
          <mxGeometry x="-0.2" y="3" relative="1" as="geometry">
            <mxPoint as="offset" />
          </mxGeometry>
        </mxCell>
        <mxCell id="W6iLbMOwOnTDB81CC6ZB-12" value="" style="rhombus;whiteSpace=wrap;html=1;" vertex="1" parent="1">
          <mxGeometry x="315" y="240" width="60" height="60" as="geometry" />
        </mxCell>
        <mxCell id="W6iLbMOwOnTDB81CC6ZB-18" style="edgeStyle=orthogonalEdgeStyle;rounded=0;orthogonalLoop=1;jettySize=auto;html=1;" edge="1" parent="1" source="W6iLbMOwOnTDB81CC6ZB-15" target="W6iLbMOwOnTDB81CC6ZB-22">
          <mxGeometry relative="1" as="geometry">
            <mxPoint x="405" y="390" as="targetPoint" />
            <Array as="points">
              <mxPoint x="500" y="390" />
              <mxPoint x="340" y="390" />
            </Array>
          </mxGeometry>
        </mxCell>
        <mxCell id="W6iLbMOwOnTDB81CC6ZB-15" value="targetDeg = ±55&lt;br&gt;로 설정" style="rounded=1;whiteSpace=wrap;html=1;" vertex="1" parent="1">
          <mxGeometry x="440" y="290" width="120" height="60" as="geometry" />
        </mxCell>
        <mxCell id="W6iLbMOwOnTDB81CC6ZB-23" style="edgeStyle=orthogonalEdgeStyle;rounded=0;orthogonalLoop=1;jettySize=auto;html=1;" edge="1" parent="1" source="W6iLbMOwOnTDB81CC6ZB-22" target="W6iLbMOwOnTDB81CC6ZB-27">
          <mxGeometry relative="1" as="geometry">
            <mxPoint x="345" y="480" as="targetPoint" />
          </mxGeometry>
        </mxCell>
        <mxCell id="W6iLbMOwOnTDB81CC6ZB-24" value="-10&amp;gt;targetDeg or targetDeg&amp;gt;10" style="edgeLabel;html=1;align=center;verticalAlign=middle;resizable=0;points=[];" vertex="1" connectable="0" parent="W6iLbMOwOnTDB81CC6ZB-23">
          <mxGeometry x="-0.1333" y="-3" relative="1" as="geometry">
            <mxPoint as="offset" />
          </mxGeometry>
        </mxCell>
        <mxCell id="W6iLbMOwOnTDB81CC6ZB-28" style="edgeStyle=orthogonalEdgeStyle;rounded=0;orthogonalLoop=1;jettySize=auto;html=1;" edge="1" parent="1" source="W6iLbMOwOnTDB81CC6ZB-22" target="W6iLbMOwOnTDB81CC6ZB-29">
          <mxGeometry relative="1" as="geometry">
            <mxPoint x="150" y="470" as="targetPoint" />
          </mxGeometry>
        </mxCell>
        <mxCell id="W6iLbMOwOnTDB81CC6ZB-22" value="" style="rhombus;whiteSpace=wrap;html=1;" vertex="1" parent="1">
          <mxGeometry x="315" y="360" width="60" height="60" as="geometry" />
        </mxCell>
        <mxCell id="W6iLbMOwOnTDB81CC6ZB-34" style="edgeStyle=orthogonalEdgeStyle;rounded=0;orthogonalLoop=1;jettySize=auto;html=1;" edge="1" parent="1" source="W6iLbMOwOnTDB81CC6ZB-27">
          <mxGeometry relative="1" as="geometry">
            <mxPoint x="345" y="620" as="targetPoint" />
          </mxGeometry>
        </mxCell>
        <mxCell id="W6iLbMOwOnTDB81CC6ZB-27" value="lefrig =&amp;nbsp;±20&lt;br&gt;로 설정" style="rounded=1;whiteSpace=wrap;html=1;" vertex="1" parent="1">
          <mxGeometry x="285" y="470" width="120" height="60" as="geometry" />
        </mxCell>
        <mxCell id="W6iLbMOwOnTDB81CC6ZB-33" style="edgeStyle=orthogonalEdgeStyle;rounded=0;orthogonalLoop=1;jettySize=auto;html=1;" edge="1" parent="1" source="W6iLbMOwOnTDB81CC6ZB-29">
          <mxGeometry relative="1" as="geometry">
            <mxPoint x="160" y="620" as="targetPoint" />
          </mxGeometry>
        </mxCell>
        <mxCell id="W6iLbMOwOnTDB81CC6ZB-29" value="lefrig = targetDeg-현재deg" style="rounded=1;whiteSpace=wrap;html=1;" vertex="1" parent="1">
          <mxGeometry x="100" y="470" width="120" height="60" as="geometry" />
        </mxCell>
        <mxCell id="W6iLbMOwOnTDB81CC6ZB-36" value="" style="endArrow=none;html=1;rounded=0;edgeStyle=orthogonalEdgeStyle;" edge="1" parent="1">
          <mxGeometry width="50" height="50" relative="1" as="geometry">
            <mxPoint x="60" y="620" as="sourcePoint" />
            <mxPoint x="430" y="620" as="targetPoint" />
            <Array as="points">
              <mxPoint x="60" y="620" />
              <mxPoint x="430" y="620" />
            </Array>
          </mxGeometry>
        </mxCell>
        <mxCell id="W6iLbMOwOnTDB81CC6ZB-37" value="" style="endArrow=classic;html=1;rounded=0;edgeStyle=orthogonalEdgeStyle;" edge="1" parent="1">
          <mxGeometry width="50" height="50" relative="1" as="geometry">
            <mxPoint x="240" y="620" as="sourcePoint" />
            <mxPoint x="240" y="720" as="targetPoint" />
          </mxGeometry>
        </mxCell>
      </root>
    </mxGraphModel>
  </diagram>
</mxfile>
